<svg xmlns="http://www.w3.org/2000/svg" width="10mm" height="10mm" viewBox="0 0 10 10"><g clip-rule="evenodd" fill-rule="evenodd" image-rendering="optimizeQuality" shape-rendering="geometricPrecision" text-rendering="geometricPrecision"><path d="M.95 3.746a.597.597 0 0 0-.6.6v.401c0 .33.27.6.6.6h.166c-.007.3-.027.563-.027.876v1.176c0 .97.512 1.751 1.482 1.751h4.82a1.77 1.77 0 0 0 1.765-1.763V6.21c0-.313.004-.558-.021-.845h.027c.33 0 .556-.288.556-.619v-.4c0-.33-.27-.6-.6-.6h-.759l.061.11.001.001.004.006a.824.824 0 0 1-.28 1.097l-.006.006-.04.021a.827.827 0 0 1-1.126-.323l-.506-.908c-1.75.016-1.9.046-2.858.04l-.475.852a.829.829 0 0 1-1.127.324l-.04-.022-.005-.005a.826.826 0 0 1-.28-1.098l.004-.006V3.84l.044-.077a460.26 460.26 0 0 1-.78-.018zM4.274.905a.53.53 0 0 1 .206.719L2.94 4.388a.53.53 0 1 1-.927-.512l1.54-2.765a.533.533 0 0 1 .72-.206zm1.56.015a.53.53 0 0 0-.206.72l1.539 2.763a.53.53 0 0 0 .927-.512L6.555 1.127A.533.533 0 0 0 5.834.92zM2.982 5.475c.248 0 .45.203.45.45V7.84a.45.45 0 0 1-.45.45.452.452 0 0 1-.45-.45V5.926a.45.45 0 0 1 .45-.45zm4.31 0c.247 0 .45.203.45.45V7.84c0 .248-.203.45-.45.45a.451.451 0 0 1-.451-.45V5.926c0-.248.203-.45.45-.45zm-2.183 0c.247 0 .45.203.45.45V7.84c0 .248-.203.45-.45.45a.452.452 0 0 1-.45-.45V5.926a.45.45 0 0 1 .45-.45z" class="fil0"/><path class="fil1" d="M81.335-161.758v-.002m.001 0l.001-.003m-.111-.409h-.002m0 0l-.003-.002"/></g></svg>