<svg 
 xmlns="http://www.w3.org/2000/svg"
 xmlns:xlink="http://www.w3.org/1999/xlink"
 width="36px" height="37px">
<path fill-rule="evenodd"  stroke-width="1px" stroke="rgb(0, 99, 131)" fill="rgb(255, 255, 255)"
 d="M31.392,31.864 C30.344,32.965 28.654,32.983 27.623,31.900 C27.623,31.900 23.604,29.331 22.050,27.354 C21.077,26.116 22.286,25.110 22.286,25.110 C21.625,24.418 19.395,23.445 19.589,22.544 C17.918,23.856 15.907,24.576 13.797,24.596 C11.204,24.622 8.779,23.587 6.967,21.687 C5.154,19.787 4.167,17.245 4.189,14.528 C4.211,11.809 5.240,9.245 7.086,7.308 C10.898,3.309 17.048,3.250 20.794,7.177 C24.195,10.744 24.463,16.389 21.632,20.392 C22.491,20.184 23.423,22.424 24.087,23.120 C24.087,23.120 25.146,22.099 26.459,23.314 C28.604,25.298 31.428,27.911 31.428,27.911 C32.458,28.994 32.444,30.763 31.392,31.864 ZM20.637,14.368 C20.653,12.473 19.966,10.700 18.702,9.376 C16.091,6.636 11.801,6.676 9.141,9.464 C6.483,12.256 6.445,16.754 9.057,19.490 C11.668,22.230 15.957,22.190 18.617,19.401 C19.904,18.051 20.621,16.263 20.637,14.368 Z"/>
</svg>
