<?xml version="1.0" encoding="UTF-8" standalone="no"?>
<!-- Created with Inkscape (http://www.inkscape.org/) -->

<svg
   xmlns:dc="http://purl.org/dc/elements/1.1/"
   xmlns:cc="http://creativecommons.org/ns#"
   xmlns:rdf="http://www.w3.org/1999/02/22-rdf-syntax-ns#"
   xmlns:svg="http://www.w3.org/2000/svg"
   xmlns="http://www.w3.org/2000/svg"
   xmlns:sodipodi="http://sodipodi.sourceforge.net/DTD/sodipodi-0.dtd"
   xmlns:inkscape="http://www.inkscape.org/namespaces/inkscape"
   width="10mm"
   height="10mm"
   viewBox="0 0 10 9.9999999"
   version="1.1"
   id="svg8"
   inkscape:version="0.92.3 (2405546, 2018-03-11)"
   sodipodi:docname="icon-basket.svg">
  <defs
     id="defs2" />
  <sodipodi:namedview
     id="base"
     pagecolor="#ffffff"
     bordercolor="#666666"
     borderopacity="1.0"
     inkscape:pageopacity="0.0"
     inkscape:pageshadow="2"
     inkscape:zoom="3.959798"
     inkscape:cx="132.78117"
     inkscape:cy="28.392782"
     inkscape:document-units="mm"
     inkscape:current-layer="Слой_x0020_1"
     showgrid="false"
     fit-margin-top="0"
     fit-margin-left="0"
     fit-margin-right="0"
     fit-margin-bottom="0"
     showguides="true"
     inkscape:guide-bbox="true"
     inkscape:window-width="2509"
     inkscape:window-height="1024"
     inkscape:window-x="1417"
     inkscape:window-y="27"
     inkscape:window-maximized="1" />
  <metadata
     id="metadata5">
    <rdf:RDF>
      <cc:Work
         rdf:about="">
        <dc:format>image/svg+xml</dc:format>
        <dc:type
           rdf:resource="http://purl.org/dc/dcmitype/StillImage" />
        <dc:title></dc:title>
      </cc:Work>
    </rdf:RDF>
  </metadata>
  <g
     inkscape:label="Layer 1"
     inkscape:groupmode="layer"
     id="layer1"
     transform="translate(8.7357141e-7,-286.99999)">
    <g
       style="clip-rule:evenodd;fill-rule:evenodd;image-rendering:optimizeQuality;shape-rendering:geometricPrecision;text-rendering:geometricPrecision"
       id="g3746"
       transform="matrix(2.6458333e-4,0,0,2.6458333e-4,72.87381,120.40952)">
      <g
         id="Слой_x0020_1">
  <metadata
   id="CorelCorpID_0Corel-Layer" />

  
  <path
   id="path3716"
   d="m -271836.75,643792.96 c -1248,-30 -2269,1021 -2269,2269 v 1513 c 0,1247 1020,2269 2269,2269 h 627 c -26,1131 -103,2127 -103,3309 v 4444 c 0,3666 1936,6619 5602,6619 h 18220 c 3666,0 6666,-3000 6666,-6665 v -4444 c 0,-1183 18,-2107 -79,-3192 h 102 c 1248,0 2104,-1091 2104,-2339 v -1513 c 0,-1248 -1021,-2269 -2269,-2269 -1021,0 -1973,1 -2868,3 l 230,413 h 1 l 3,5 13,22 c 416,752 487,1603 268,2369 -203,712 -661,1354 -1328,1778 l -20,21 -149,82 c -753,416 -1608,489 -2379,268 -770,-221 -1459,-736 -1880,-1492 l -1911,-3431 c -6614,61 -7179,175 -10803,152 l -1794,3221 c -421,756 -1109,1270 -1880,1491 -770,221 -1626,149 -2379,-268 l -148,-82 -21,-20 c -666,-424 -1124,-1066 -1327,-1778 -220,-767 -148,-1617 268,-2370 l 13,-22 4,-6 v 1 l 162,-290 c -891,-20 -1867,-42 -2946,-68 z m 12561,-10740 v 0 c 963,532 1314,1755 778,2717 l -5816,10447 c -536,962 -1761,1313 -2726,781 v 0 c -963,-533 -1314,-1756 -778,-2718 l 5816,-10447 c 536,-962 1762,-1313 2726,-780 z m 5897,59 h -1 c -963,533 -1313,1755 -778,2718 l 5817,10446 c 535,962 1762,1314 2725,781 v 0 c 963,-533 1314,-1755 779,-2718 l -5817,-10447 c -535,-961 -1762,-1313 -2725,-780 z m -10779,17215 h 1 c 936,0 1701,766 1701,1702 v 7233 c 0,936 -765,1702 -1701,1702 h -1 c -936,0 -1702,-766 -1702,-1702 v -7233 c 0,-937 766,-1702 1702,-1702 z m 16286,0 h 1 c 936,0 1701,766 1701,1702 v 7233 c 0,936 -765,1702 -1701,1702 h -1 c -936,0 -1701,-766 -1701,-1702 v -7233 c 0,-937 766,-1702 1701,-1702 z m -8249,0 v 0 c 936,0 1702,766 1702,1702 v 7233 c 0,936 -766,1702 -1702,1702 v 0 c -936,0 -1702,-766 -1702,-1702 v -7233 c 0,-937 766,-1702 1702,-1702 z"
   class="fil0"
   inkscape:connector-curvature="0" />

  <line
   id="line3718"
   y2="32505"
   x2="22724"
   y1="32505"
   x1="22724"
   class="fil1" />

  <polyline
   id="polyline3720"
   points="31980,18265 31978,18264 31982,18257 "
   class="fil1" />

  <line
   id="line3722"
   y2="18245"
   x2="31988"
   y1="18257"
   x1="31982"
   class="fil1" />

  <polyline
   id="polyline3724"
   points="31568,16701 31567,16703 31560,16699 "
   class="fil1" />

  <line
   id="line3726"
   y2="16693"
   x2="31548"
   y1="16699"
   x1="31560"
   class="fil1" />

 </g>
    </g>
  </g>
</svg>
