<svg 
 xmlns="http://www.w3.org/2000/svg"
 xmlns:xlink="http://www.w3.org/1999/xlink"
 width="216px" height="217px">
<defs>
<filter id="Filter_0">
    <feFlood flood-color="rgb(2, 50, 68)" flood-opacity="1" result="floodOut" />
    <feComposite operator="atop" in="floodOut" in2="SourceGraphic" result="compOut" />
    <feBlend mode="normal" in="compOut" in2="SourceGraphic" />
</filter>

</defs>
<g filter="url(#Filter_0)">
<path fill-rule="evenodd"  fill="rgb(5, 65, 88)"
 d="M108.411,0.881 C167.760,0.881 215.870,49.045 215.870,108.461 C215.870,167.878 167.760,216.042 108.411,216.042 C49.064,216.042 0.952,167.878 0.952,108.461 C0.952,49.045 49.064,0.881 108.411,0.881 Z"/>
</g>
<path fill-rule="evenodd"  fill="rgb(4, 157, 186)"
 d="M108.500,22.000 C130.315,22.000 148.000,39.685 148.000,61.500 C148.000,83.315 130.315,101.000 108.500,101.000 C86.685,101.000 69.000,83.315 69.000,61.500 C69.000,39.685 86.685,22.000 108.500,22.000 Z"/>
<path fill-rule="evenodd"  fill="rgb(4, 157, 186)"
 d="M71.000,100.000 C71.000,100.000 88.939,96.000 107.500,96.000 C127.393,96.000 148.000,100.000 148.000,100.000 C161.807,100.000 173.000,111.193 173.000,125.000 C173.000,125.000 178.631,162.323 169.000,166.000 C157.214,170.500 137.045,175.420 114.000,176.000 C92.721,176.535 62.034,171.500 49.000,168.000 C39.318,165.400 46.000,125.000 46.000,125.000 C46.000,111.193 57.193,100.000 71.000,100.000 Z"/>
</svg>
