<!DOCTYPE svg PUBLIC "-//W3C//DTD SVG 20010904//EN" "http://www.w3.org/TR/2001/REC-SVG-20010904/DTD/svg10.dtd">
<svg version="1.0" xmlns="http://www.w3.org/2000/svg" width="750px" height="666px" viewBox="0 0 7500 6660" preserveAspectRatio="xMidYMid meet">
<g id="layer101" fill="#ffffff" stroke="none">
 <path d="M1534 6645 c-188 -51 -346 -195 -409 -374 -8 -24 -28 -125 -45 -225 -17 -99 -37 -219 -45 -266 -8 -47 -26 -157 -40 -245 -24 -151 -34 -215 -70 -422 -8 -49 -40 -241 -70 -428 -31 -187 -62 -376 -69 -420 -8 -44 -19 -114 -26 -155 -58 -378 -98 -593 -111 -601 -6 -4 -43 -7 -83 -7 -174 -2 -362 -108 -465 -262 -83 -123 -105 -209 -98 -370 6 -121 18 -169 71 -270 42 -81 156 -189 243 -234 120 -60 163 -66 478 -66 l281 0 -3 102 c-4 140 17 253 68 373 47 109 173 256 282 330 178 119 410 162 613 114 287 -68 498 -260 587 -534 34 -104 46 -250 28 -342 l-8 -43 1102 0 1103 0 -6 106 c-11 225 58 416 212 580 148 159 364 254 579 254 149 0 375 -74 455 -148 18 -17 32 -28 32 -24 0 3 9 -3 20 -13 11 -10 17 -22 13 -28 -3 -5 -1 -7 4 -4 22 14 191 -192 177 -215 -3 -4 -1 -8 4 -8 6 0 24 -38 40 -84 40 -109 59 -260 46 -350 l-10 -67 315 3 316 4 64 27 c100 42 150 75 221 147 230 234 229 609 -3 843 -115 116 -253 176 -413 180 -83 2 -76 -5 -94 102 -13 85 -35 214 -55 333 -8 48 -24 146 -36 217 -12 72 -27 166 -35 210 -7 44 -22 141 -33 215 -12 74 -25 155 -30 180 -5 25 -17 88 -25 140 -15 93 -98 602 -156 955 -16 99 -34 212 -40 250 -16 99 -37 170 -73 245 -43 87 -159 203 -247 247 -138 68 41 63 -2345 62 -1810 0 -2168 -3 -2211 -14z m1111 -711 c22 -11 42 -21 45 -24 3 -3 20 -17 39 -30 49 -34 106 -128 121 -199 14 -65 12 -81 -20 -286 -31 -198 -74 -489 -100 -670 -6 -44 -15 -102 -20 -130 -5 -27 -16 -102 -25 -165 -9 -63 -20 -137 -25 -165 -5 -27 -12 -72 -15 -100 -8 -71 -35 -233 -46 -280 -5 -22 -12 -48 -14 -58 -7 -31 -51 -100 -82 -128 -41 -38 -112 -81 -123 -74 -6 4 -10 2 -10 -4 0 -25 -147 -30 -224 -7 -57 17 -128 64 -119 79 3 5 1 7 -5 4 -14 -10 -60 47 -89 110 -43 94 -42 119 37 628 11 72 22 148 25 170 15 102 37 249 51 335 8 52 19 124 24 160 5 36 17 112 25 170 14 95 22 148 55 365 13 84 45 155 93 210 36 42 118 92 171 106 52 14 187 3 231 -17z m1248 -2 c64 -29 138 -101 173 -169 l29 -58 3 -913 2 -913 -24 -60 c-27 -67 -72 -122 -131 -160 -61 -40 -76 -46 -138 -58 -146 -27 -310 58 -379 198 l-23 46 -3 923 -2 923 29 62 c46 98 123 167 219 194 65 18 187 10 245 -15z m1247 -2 c66 -34 108 -68 141 -117 48 -69 59 -112 99 -388 31 -209 92 -622 105 -700 7 -49 21 -142 30 -205 9 -63 22 -151 30 -195 7 -44 18 -120 25 -170 6 -49 16 -118 22 -151 39 -238 -185 -453 -417 -399 -84 19 -117 36 -177 93 -73 68 -92 117 -122 317 -9 55 -22 143 -30 195 -8 52 -22 142 -30 200 -9 58 -23 150 -31 205 -9 55 -20 132 -26 170 -13 91 -35 236 -53 355 -78 499 -79 512 -33 611 45 98 116 161 220 195 63 21 191 12 247 -16z"/>
 <path d="M1730 2994 c-189 -50 -339 -186 -401 -365 -30 -87 -38 -244 -15 -325 59 -211 233 -378 433 -415 76 -14 68 -8 138 -119 33 -52 145 -233 155 -250 5 -8 59 -96 121 -195 61 -99 120 -194 130 -212 10 -17 57 -94 105 -170 48 -76 87 -143 87 -150 0 -7 6 -14 14 -17 7 -3 13 -15 13 -27 0 -12 3 -19 6 -16 7 7 154 -226 154 -242 0 -5 4 -11 8 -13 4 -1 55 -79 113 -173 119 -193 173 -254 254 -284 80 -30 193 -29 261 3 127 59 204 176 204 312 0 82 -30 149 -155 344 -34 52 -107 171 -185 300 -5 8 -91 148 -192 310 -101 162 -187 302 -193 312 -5 9 -82 133 -170 274 -88 140 -167 268 -175 282 -8 15 -22 37 -31 50 -15 20 -15 27 -2 65 21 59 28 213 13 289 -31 162 -144 308 -300 387 -114 58 -272 76 -390 45z"/>
 <path d="M5483 2990 c-136 -40 -273 -143 -337 -253 -71 -121 -97 -266 -71 -387 8 -41 18 -86 21 -100 4 -19 -15 -57 -80 -160 -47 -74 -92 -149 -101 -167 -9 -18 -23 -37 -31 -44 -8 -6 -14 -15 -14 -19 0 -9 -257 -421 -268 -430 -4 -3 -8 -10 -9 -17 -2 -7 -71 -122 -155 -255 -262 -420 -414 -671 -431 -716 -33 -84 -15 -226 38 -297 47 -63 72 -84 125 -112 49 -25 65 -28 155 -28 91 0 105 3 158 30 69 35 96 66 202 236 44 71 138 223 209 337 71 114 154 248 186 297 31 50 60 97 63 105 4 8 32 57 64 107 32 51 87 139 122 195 35 57 80 129 100 160 20 31 84 135 143 231 l108 175 47 7 c330 49 546 395 447 716 -14 46 -26 92 -27 101 -1 9 -4 15 -8 12 -4 -2 -19 17 -34 42 -36 61 -105 127 -182 173 -35 21 -60 41 -55 46 4 4 1 5 -5 1 -7 -4 -44 2 -81 14 -88 25 -212 26 -299 0z"/>
 </g>

</svg>