<svg xmlns="http://www.w3.org/2000/svg">
	<symbol id="cart" viewBox="0 0 7500 6660">
		<title>cart</title>
		<path d="M1534 6645 c-188 -51 -346 -195 -409 -374 -8 -24 -28 -125 -45 -225 -17 -99 -37 -219 -45 -266 -8 -47 -26 -157 -40 -245 -24 -151 -34 -215 -70 -422 -8 -49 -40 -241 -70 -428 -31 -187 -62 -376 -69 -420 -8 -44 -19 -114 -26 -155 -58 -378 -98 -593 -111 -601 -6 -4 -43 -7 -83 -7 -174 -2 -362 -108 -465 -262 -83 -123 -105 -209 -98 -370 6 -121 18 -169 71 -270 42 -81 156 -189 243 -234 120 -60 163 -66 478 -66 l281 0 -3 102 c-4 140 17 253 68 373 47 109 173 256 282 330 178 119 410 162 613 114 287 -68 498 -260 587 -534 34 -104 46 -250 28 -342 l-8 -43 1102 0 1103 0 -6 106 c-11 225 58 416 212 580 148 159 364 254 579 254 149 0 375 -74 455 -148 18 -17 32 -28 32 -24 0 3 9 -3 20 -13 11 -10 17 -22 13 -28 -3 -5 -1 -7 4 -4 22 14 191 -192 177 -215 -3 -4 -1 -8 4 -8 6 0 24 -38 40 -84 40 -109 59 -260 46 -350 l-10 -67 315 3 316 4 64 27 c100 42 150 75 221 147 230 234 229 609 -3 843 -115 116 -253 176 -413 180 -83 2 -76 -5 -94 102 -13 85 -35 214 -55 333 -8 48 -24 146 -36 217 -12 72 -27 166 -35 210 -7 44 -22 141 -33 215 -12 74 -25 155 -30 180 -5 25 -17 88 -25 140 -15 93 -98 602 -156 955 -16 99 -34 212 -40 250 -16 99 -37 170 -73 245 -43 87 -159 203 -247 247 -138 68 41 63 -2345 62 -1810 0 -2168 -3 -2211 -14z m1111 -711 c22 -11 42 -21 45 -24 3 -3 20 -17 39 -30 49 -34 106 -128 121 -199 14 -65 12 -81 -20 -286 -31 -198 -74 -489 -100 -670 -6 -44 -15 -102 -20 -130 -5 -27 -16 -102 -25 -165 -9 -63 -20 -137 -25 -165 -5 -27 -12 -72 -15 -100 -8 -71 -35 -233 -46 -280 -5 -22 -12 -48 -14 -58 -7 -31 -51 -100 -82 -128 -41 -38 -112 -81 -123 -74 -6 4 -10 2 -10 -4 0 -25 -147 -30 -224 -7 -57 17 -128 64 -119 79 3 5 1 7 -5 4 -14 -10 -60 47 -89 110 -43 94 -42 119 37 628 11 72 22 148 25 170 15 102 37 249 51 335 8 52 19 124 24 160 5 36 17 112 25 170 14 95 22 148 55 365 13 84 45 155 93 210 36 42 118 92 171 106 52 14 187 3 231 -17z m1248 -2 c64 -29 138 -101 173 -169 l29 -58 3 -913 2 -913 -24 -60 c-27 -67 -72 -122 -131 -160 -61 -40 -76 -46 -138 -58 -146 -27 -310 58 -379 198 l-23 46 -3 923 -2 923 29 62 c46 98 123 167 219 194 65 18 187 10 245 -15z m1247 -2 c66 -34 108 -68 141 -117 48 -69 59 -112 99 -388 31 -209 92 -622 105 -700 7 -49 21 -142 30 -205 9 -63 22 -151 30 -195 7 -44 18 -120 25 -170 6 -49 16 -118 22 -151 39 -238 -185 -453 -417 -399 -84 19 -117 36 -177 93 -73 68 -92 117 -122 317 -9 55 -22 143 -30 195 -8 52 -22 142 -30 200 -9 58 -23 150 -31 205 -9 55 -20 132 -26 170 -13 91 -35 236 -53 355 -78 499 -79 512 -33 611 45 98 116 161 220 195 63 21 191 12 247 -16z"/>
		<path d="M1730 2994 c-189 -50 -339 -186 -401 -365 -30 -87 -38 -244 -15 -325 59 -211 233 -378 433 -415 76 -14 68 -8 138 -119 33 -52 145 -233 155 -250 5 -8 59 -96 121 -195 61 -99 120 -194 130 -212 10 -17 57 -94 105 -170 48 -76 87 -143 87 -150 0 -7 6 -14 14 -17 7 -3 13 -15 13 -27 0 -12 3 -19 6 -16 7 7 154 -226 154 -242 0 -5 4 -11 8 -13 4 -1 55 -79 113 -173 119 -193 173 -254 254 -284 80 -30 193 -29 261 3 127 59 204 176 204 312 0 82 -30 149 -155 344 -34 52 -107 171 -185 300 -5 8 -91 148 -192 310 -101 162 -187 302 -193 312 -5 9 -82 133 -170 274 -88 140 -167 268 -175 282 -8 15 -22 37 -31 50 -15 20 -15 27 -2 65 21 59 28 213 13 289 -31 162 -144 308 -300 387 -114 58 -272 76 -390 45z"/>
		<path d="M5483 2990 c-136 -40 -273 -143 -337 -253 -71 -121 -97 -266 -71 -387 8 -41 18 -86 21 -100 4 -19 -15 -57 -80 -160 -47 -74 -92 -149 -101 -167 -9 -18 -23 -37 -31 -44 -8 -6 -14 -15 -14 -19 0 -9 -257 -421 -268 -430 -4 -3 -8 -10 -9 -17 -2 -7 -71 -122 -155 -255 -262 -420 -414 -671 -431 -716 -33 -84 -15 -226 38 -297 47 -63 72 -84 125 -112 49 -25 65 -28 155 -28 91 0 105 3 158 30 69 35 96 66 202 236 44 71 138 223 209 337 71 114 154 248 186 297 31 50 60 97 63 105 4 8 32 57 64 107 32 51 87 139 122 195 35 57 80 129 100 160 20 31 84 135 143 231 l108 175 47 7 c330 49 546 395 447 716 -14 46 -26 92 -27 101 -1 9 -4 15 -8 12 -4 -2 -19 17 -34 42 -36 61 -105 127 -182 173 -35 21 -60 41 -55 46 4 4 1 5 -5 1 -7 -4 -44 2 -81 14 -88 25 -212 26 -299 0z"/>
	</symbol>
	<symbol id="whatsapp" viewBox="0 0 90 90">
		<title>whatsapp</title>
        <path d="M90,43.841c0,24.213-19.779,43.841-44.182,43.841c-7.747,0-15.025-1.98-21.357-5.455L0,90l7.975-23.522
		c-4.023-6.606-6.34-14.354-6.34-22.637C1.635,19.628,21.416,0,45.818,0C70.223,0,90,19.628,90,43.841z M45.818,6.982
		c-20.484,0-37.146,16.535-37.146,36.859c0,8.065,2.629,15.534,7.076,21.61L11.107,79.14l14.275-4.537
		c5.865,3.851,12.891,6.097,20.437,6.097c20.481,0,37.146-16.533,37.146-36.857S66.301,6.982,45.818,6.982z M68.129,53.938
		c-0.273-0.447-0.994-0.717-2.076-1.254c-1.084-0.537-6.41-3.138-7.4-3.495c-0.993-0.358-1.717-0.538-2.438,0.537
		c-0.721,1.076-2.797,3.495-3.43,4.212c-0.632,0.719-1.263,0.809-2.347,0.271c-1.082-0.537-4.571-1.673-8.708-5.333
		c-3.219-2.848-5.393-6.364-6.025-7.441c-0.631-1.075-0.066-1.656,0.475-2.191c0.488-0.482,1.084-1.255,1.625-1.882
		c0.543-0.628,0.723-1.075,1.082-1.793c0.363-0.717,0.182-1.344-0.09-1.883c-0.27-0.537-2.438-5.825-3.34-7.977
		c-0.902-2.15-1.803-1.792-2.436-1.792c-0.631,0-1.354-0.09-2.076-0.09c-0.722,0-1.896,0.269-2.889,1.344
		c-0.992,1.076-3.789,3.676-3.789,8.963c0,5.288,3.879,10.397,4.422,11.113c0.541,0.716,7.49,11.92,18.5,16.223
		C58.2,65.771,58.2,64.336,60.186,64.156c1.984-0.179,6.406-2.599,7.312-5.107C68.398,56.537,68.398,54.386,68.129,53.938z" />
	</symbol>
	<symbol id="viber" viewBox="-22 0 512 512">
		<title>viber</title>
        <path d="m468.484375 180.707031c.003906-48.085937-18.84375-93.414062-53.066406-127.636719-34.222657-34.222656-79.550781-53.070312-127.640625-53.070312h-107.070313c-.003906 0-.003906 0-.003906 0-48.082031 0-93.414063 18.847656-127.632813 53.066406-34.222656 34.226563-53.070312 79.554688-53.070312 127.640625v84.164063c0 37.242187 11.359375 73.0625 32.851562 103.597656 18.960938 26.9375 44.460938 47.980469 74.191407 61.320312v48.34375c0 24.996094 13.996093 33.867188 25.980469 33.867188 8.5625 0 17.125-4.226562 25.460937-12.558594l53.859375-53.859375 75.4375-.003906c48.085938 0 93.414062-18.847656 127.636719-53.066406 34.222656-34.222657 53.070312-79.554688 53.070312-127.640625zm-180.703125 234.871094-81.648438.003906c-3.980468 0-7.792968 1.578125-10.605468 4.390625l-58.253906 58.253906c-.074219.078126-.152344.152344-.230469.226563 0-.105469 0-.214844 0-.320313v-58.355468c0-6.222656-3.839844-11.796875-9.652344-14.015625-58.25-22.226563-97.386719-78.847657-97.386719-140.890625v-84.164063c0-40.074219 15.726563-77.871093 44.28125-106.429687 28.554688-28.550782 66.347656-44.277344 106.421875-44.277344h107.070313c40.074218 0 77.871094 15.726562 106.425781 44.28125 28.558594 28.558594 44.285156 66.355469 44.28125 106.425781l.003906 84.164063c-.003906 83.101562-67.609375 150.707031-150.707031 150.707031zm0 0"/><path d="m274.132812 245.335938c-5.855468-5.859376-15.351562-5.859376-21.210937 0l-12.117187 12.113281-46.953126-46.949219 12.117188-12.113281c2.8125-2.8125 4.394531-6.628907 4.394531-10.609375 0-3.976563-1.582031-7.792969-4.394531-10.605469l-56.804688-56.804687c-2.8125-2.8125-6.625-4.394532-10.605468-4.394532-3.976563 0-7.792969 1.582032-10.605469 4.394532l-39.765625 39.765624c-21.503906 21.503907-21.503906 56.5.003906 78.015626l124.964844 124.972656c10.390625 10.386718 24.246094 16.105468 39.007812 16.105468 14.765626 0 28.621094-5.71875 39.011719-16.105468l39.765625-39.761719c2.8125-2.816406 4.394532-6.628906 4.394532-10.609375 0-3.976562-1.582032-7.792969-4.394532-10.605469zm-4.171874 96.566406c-4.722657 4.722656-11.042969 7.324218-17.796876 7.324218-6.753906 0-13.074218-2.601562-17.796874-7.324218l-124.960938-124.96875c-9.8125-9.8125-9.816406-25.78125-.003906-35.589844l29.15625-29.160156 35.589844 35.59375-12.117188 12.113281c-2.8125 2.8125-4.394531 6.628906-4.394531 10.605469 0 3.980468 1.582031 7.792968 4.394531 10.609375l68.164062 68.164062c5.859376 5.855469 15.355469 5.859375 21.214844 0l12.117188-12.113281 35.589844 35.589844zm0 0"/><path d="m237.882812 66.355469c-8.285156 0-15 6.714843-15 15 0 8.28125 6.714844 15 15 15 34.328126 0 66.605469 13.367187 90.878907 37.644531 24.277343 24.273438 37.644531 56.546875 37.644531 90.878906 0 8.28125 6.714844 15 15 15 8.28125 0 15-6.714844 15-15 0-42.34375-16.488281-82.152344-46.429688-112.09375-29.941406-29.941406-69.75-46.429687-112.09375-46.429687zm0 0"/><path d="m302.140625 224.875c0 8.28125 6.71875 15 15 15 8.285156 0 15-6.71875 15-15 0-51.972656-42.285156-94.253906-94.257813-94.253906-8.285156 0-15 6.714844-15 15s6.714844 15 15 15c35.433594 0 64.257813 28.824218 64.257813 64.253906zm0 0"/>
	</symbol>
	<symbol id="share" viewBox="0 0 481.6 481.6">
		<title>share</title>
        <path d="M381.6,309.4c-27.7,0-52.4,13.2-68.2,33.6l-132.3-73.9c3.1-8.9,4.8-18.5,4.8-28.4c0-10-1.7-19.5-4.9-28.5l132.2-73.8
		c15.7,20.5,40.5,33.8,68.3,33.8c47.4,0,86.1-38.6,86.1-86.1S429,0,381.5,0s-86.1,38.6-86.1,86.1c0,10,1.7,19.6,4.9,28.5
		l-132.1,73.8c-15.7-20.6-40.5-33.8-68.3-33.8c-47.4,0-86.1,38.6-86.1,86.1s38.7,86.1,86.2,86.1c27.8,0,52.6-13.3,68.4-33.9
		l132.2,73.9c-3.2,9-5,18.7-5,28.7c0,47.4,38.6,86.1,86.1,86.1s86.1-38.6,86.1-86.1S429.1,309.4,381.6,309.4z M381.6,27.1
		c32.6,0,59.1,26.5,59.1,59.1s-26.5,59.1-59.1,59.1s-59.1-26.5-59.1-59.1S349.1,27.1,381.6,27.1z M100,299.8
		c-32.6,0-59.1-26.5-59.1-59.1s26.5-59.1,59.1-59.1s59.1,26.5,59.1,59.1S132.5,299.8,100,299.8z M381.6,454.5
		c-32.6,0-59.1-26.5-59.1-59.1c0-32.6,26.5-59.1,59.1-59.1s59.1,26.5,59.1,59.1C440.7,428,414.2,454.5,381.6,454.5z"/>
	</symbol>
</svg>